<svg xmlns="http://www.w3.org/2000/svg" xmlns:xlink="http://www.w3.org/1999/xlink" width="472" height="464" viewBox="0 0 472 464">
  <defs>
    <filter id="Path_36" x="199.775" y="135.145" width="158.903" height="116.422" filterUnits="userSpaceOnUse">
      <feOffset dy="3" input="SourceAlpha"/>
      <feGaussianBlur stdDeviation="3" result="blur"/>
      <feFlood flood-opacity="0.529"/>
      <feComposite operator="in" in2="blur"/>
      <feComposite in="SourceGraphic"/>
    </filter>
    <filter id="Rectangle_1" x="178.346" y="182.46" width="244.894" height="187.657" filterUnits="userSpaceOnUse">
      <feOffset dy="3" input="SourceAlpha"/>
      <feGaussianBlur stdDeviation="3" result="blur-2"/>
      <feFlood flood-opacity="0.529"/>
      <feComposite operator="in" in2="blur-2"/>
      <feComposite in="SourceGraphic"/>
    </filter>
  </defs>
  <g id="Group_3" data-name="Group 3" transform="translate(-724 -308)">
    <g id="playground" transform="translate(708 284)">
      <path id="Path_1" data-name="Path 1" d="M400,144h16v16H400Z" fill="#8d7761"/>
      <path id="Path_2" data-name="Path 2" d="M360,272a8,8,0,0,1-8-8V192a8,8,0,0,1,16,0v72A8,8,0,0,1,360,272Z" fill="#c3c3c3"/>
      <path id="Path_3" data-name="Path 3" d="M360,196.038a78.038,78.038,0,0,1-34.883-8.191l-9.383-4.692a8,8,0,1,1,7.157-14.31l9.382,4.691a62.3,62.3,0,0,0,55.454,0l9.382-4.691a8,8,0,1,1,7.157,14.31l-9.383,4.692A78.038,78.038,0,0,1,360,196.038Z" fill="#eaeae8"/>
      <path id="Path_4" data-name="Path 4" d="M392,152h32V264H392Z" fill="#8d7761"/>
      <path id="Path_5" data-name="Path 5" d="M113.5,269.726,63.158,376H40a24,24,0,0,0-24,24v8H88l56.842-120H188l-1-32H135.188A24,24,0,0,0,113.5,269.724Z" fill="#99d8aa"/>
      <path id="Path_6" data-name="Path 6" d="M187,256H136V245.876A21.876,21.876,0,0,1,157.876,224H187Z" fill="#8dc79d"/>
      <path id="Path_7" data-name="Path 7" d="M320,256H424v32H320Z" fill="#fbb540"/>
      <path id="Path_8" data-name="Path 8" d="M424,272h56v16H424Z" fill="#d1763e"/>
      <path id="Path_9" data-name="Path 9" d="M424,304h56v16H424Z" fill="#d1763e"/>
      <path id="Path_10" data-name="Path 10" d="M424,336h56v16H424Z" fill="#d1763e"/>
      <path id="Path_11" data-name="Path 11" d="M424,368h56v16H424Z" fill="#d1763e"/>
      <g id="Group_1" data-name="Group 1">
        <path id="Path_12" data-name="Path 12" d="M424,272h16v16H424Z" fill="#b36435"/>
        <path id="Path_13" data-name="Path 13" d="M424,304h16v16H424Z" fill="#b36435"/>
        <path id="Path_14" data-name="Path 14" d="M424,336h16v16H424Z" fill="#b36435"/>
        <path id="Path_15" data-name="Path 15" d="M424,368h16v16H424Z" fill="#b36435"/>
        <path id="Path_16" data-name="Path 16" d="M464,272h16v16H464Z" fill="#b36435"/>
        <path id="Path_17" data-name="Path 17" d="M464,304h16v16H464Z" fill="#b36435"/>
        <path id="Path_18" data-name="Path 18" d="M464,336h16v16H464Z" fill="#b36435"/>
        <path id="Path_19" data-name="Path 19" d="M464,368h16v16H464Z" fill="#b36435"/>
      </g>
      <path id="Path_20" data-name="Path 20" d="M184,104H328V288H184Z" fill="#6cbae5"/>
      <path id="Path_21" data-name="Path 21" d="M184,104H328v16H184Z" fill="#4799cf"/>
      <path id="Path_22" data-name="Path 22" d="M392,240h32v16H392Z" fill="#746250"/>
      <path id="Path_23" data-name="Path 23" d="M424,416a8,8,0,0,1-8-8V256a8,8,0,0,1,16,0V408A8,8,0,0,1,424,416Z" fill="#e78244"/>
      <path id="Path_24" data-name="Path 24" d="M480,416a8,8,0,0,1-8-8V256a8,8,0,0,1,16,0V408A8,8,0,0,1,480,416Z" fill="#e78244"/>
      <path id="Path_25" data-name="Path 25" d="M152,288h32V408H152Z" fill="#8d7761"/>
      <path id="Path_26" data-name="Path 26" d="M328,288h32V408H328Z" fill="#8d7761"/>
      <path id="Path_27" data-name="Path 27" d="M152,288h32v16H152Z" fill="#746250"/>
      <path id="Path_28" data-name="Path 28" d="M328,288h32v16H328Z" fill="#746250"/>
      <path id="Path_29" data-name="Path 29" d="M368,104H144L256,24Z" fill="#b94137"/>
      <path id="Path_30" data-name="Path 30" d="M296,144c0,1.35-.07,2.68-.2,4a40,40,0,0,1-79.6,0c-.13-1.32-.2-2.65-.2-4a40,40,0,0,1,80,0Z" fill="#4799cf"/>
      <ellipse id="Ellipse_1" data-name="Ellipse 1" cx="39.8" cy="36" rx="39.8" ry="36" transform="translate(216.2 104)" fill="#3f86bb"/>
      <path id="Path_31" data-name="Path 31" d="M424,136a15.964,15.964,0,1,1-.5-4A15.964,15.964,0,0,1,424,136Z" fill="#786653"/>
      <ellipse id="Ellipse_2" data-name="Ellipse 2" cx="15.5" cy="12" rx="15.5" ry="12" transform="translate(392.5 120)" fill="#8d7761"/>
      <path id="Path_32" data-name="Path 32" d="M480,416H24a8,8,0,0,1,0-16H480a8,8,0,0,1,0,16Z" fill="#55785f"/>
      <path id="Path_33" data-name="Path 33" d="M256,216a40,40,0,0,0-40,40V448h80V256A40,40,0,0,0,256,216Z" fill="#fbb540"/>
      <circle id="Ellipse_3" data-name="Ellipse 3" cx="40" cy="40" r="40" transform="translate(216 408)" fill="#c38325"/>
      <path id="Path_34" data-name="Path 34" d="M296,448a40,40,0,0,0-80,0V400a40,40,0,0,1,80,0Z" fill="#ea9d2d"/>
      <path id="Path_35" data-name="Path 35" d="M296,352a40,40,0,0,0-80,0V304a40,40,0,0,1,80,0Z" fill="#ea9d2d"/>
    </g>
    <g id="closed" transform="matrix(0.966, -0.259, 0.259, 0.966, 888.877, 464.982)">
      <g transform="matrix(0.97, 0.26, -0.26, 0.97, -118.63, -194.31)" filter="url(#Path_36)">
        <path id="Path_36-2" data-name="Path 36" d="M223.742,90.606,175.048,46.339a8.021,8.021,0,0,0,.632-3.794,14.545,14.545,0,0,0-29.09,0c0,1.265,0,2.53.632,3.162L96,90.606l4.427,5.059,49.959-43.635a15.37,15.37,0,0,0,11.383,5.691,15.836,15.836,0,0,0,11.383-5.059l47.429,43Z" transform="matrix(0.97, -0.26, 0.26, 0.97, 108.8, 172.01)"/>
      </g>
      <g transform="matrix(0.97, 0.26, -0.26, 0.97, -118.63, -194.31)" filter="url(#Rectangle_1)">
        <rect id="Rectangle_1-2" data-name="Rectangle 1" width="202.364" height="121.418" transform="matrix(0.97, -0.26, 0.26, 0.97, 187.35, 240.84)" fill="#e04f5f"/>
      </g>
      <g id="Group_2" data-name="Group 2" transform="translate(27.041 127.924)">
        <path id="Path_37" data-name="Path 37" d="M94.641,317.168a21.714,21.714,0,0,1-8.626,1.448c-11.611,0-17.6-7.228-17.6-16.8,0-11.465,8.177-17.846,18.346-17.846a19.746,19.746,0,0,1,8.278,1.5L93.49,291.5a16.331,16.331,0,0,0-6.381-1.246c-6.033,0-10.719,3.636-10.719,11.117,0,6.729,3.984,10.966,10.77,10.966a18.922,18.922,0,0,0,6.33-1.094Z" transform="translate(-68.416 -282.722)" fill="#fff"/>
        <path id="Path_38" data-name="Path 38" d="M146.4,280.816h7.576v35.395H146.4Z" transform="translate(-115.577 -280.816)" fill="#fff"/>
        <path id="Path_39" data-name="Path 39" d="M203.057,319.751c0,8.923-6.33,13.008-12.863,13.008-7.127,0-12.61-4.686-12.61-12.566S182.77,307.28,190.6,307.28C198.073,307.286,203.057,312.421,203.057,319.751ZM185.413,320c0,4.186,1.745,7.329,4.99,7.329,2.941,0,4.831-2.941,4.831-7.329,0-3.636-1.4-7.329-4.831-7.329C186.76,312.674,185.413,316.412,185.413,320Z" transform="translate(-134.436 -296.82)" fill="#fff"/>
        <path id="Path_40" data-name="Path 40" d="M251.747,325.6a14.822,14.822,0,0,0,6.533,1.84c2.3,0,3.238-.8,3.238-2.049s-.746-1.84-3.586-2.789c-5.04-1.695-6.982-4.439-6.931-7.329,0-4.534,3.889-7.974,9.922-7.974a16.344,16.344,0,0,1,6.874,1.4l-1.341,5.236a11.934,11.934,0,0,0-5.287-1.4c-1.84,0-2.89.746-2.89,1.992,0,1.151.949,1.745,3.94,2.8,4.635,1.594,6.577,3.94,6.627,7.525,0,4.541-3.586,7.88-10.567,7.88a17.243,17.243,0,0,1-7.88-1.695Z" transform="translate(-178.472 -296.83)" fill="#fff"/>
        <path id="Path_41" data-name="Path 41" d="M312.386,322.454c.247,3.143,3.339,4.635,6.88,4.635a21.356,21.356,0,0,0,6.729-1l.993,5.135a24.008,24.008,0,0,1-8.822,1.5c-8.278,0-13.015-4.787-13.015-12.414,0-6.185,3.839-13.015,12.313-13.015,7.873,0,10.864,6.134,10.864,12.167a18.647,18.647,0,0,1-.247,2.991Zm8.923-5.186c0-1.847-.8-4.939-4.288-4.939-3.194,0-4.484,2.89-4.686,4.939Z" transform="translate(-211.584 -296.83)" fill="#fff"/>
        <path id="Path_42" data-name="Path 42" d="M396.831,280.816v28.116c0,2.738.1,5.635.2,7.279H390.3l-.348-3.586h-.1a8.516,8.516,0,0,1-7.627,4.136c-5.786,0-10.422-4.939-10.422-12.515-.051-8.221,5.084-12.964,10.921-12.964,2.991,0,5.331,1.05,6.431,2.745h.1V280.816Zm-7.576,21.337a11.951,11.951,0,0,0-.1-1.347,4.553,4.553,0,0,0-4.439-3.737c-3.44,0-5.23,3.086-5.23,6.931,0,4.136,2.043,6.729,5.186,6.729a4.435,4.435,0,0,0,4.389-3.636,6.65,6.65,0,0,0,.2-1.745Z" transform="translate(-251.894 -280.816)" fill="#fff"/>
      </g>
    </g>
  </g>
</svg>
