<svg height="64" viewBox="0 0 32 31.999999" width="64" xmlns="http://www.w3.org/2000/svg"><g transform="matrix(1.4398131 0 0 1.4398131 12.738226 -41.359909)"><path d="m95 98.6h-65.9v-29.3h7.3v22h51.2v-22h7.4z" fill="#bcbbbb" transform="matrix(.27070775 0 0 .27070775 -15.005761 24.25921)"/><path d="m-2.9592643 42.477843 9.7184069 2.030307.4060613-1.949095-9.7184077-2.030309zm1.2723257-4.656174 8.9874963 4.19597.8391971-1.786671-8.9875018-4.223041zm2.4905098-4.412536 7.6339592 6.334561 1.2723265-1.515963-7.6339592-6.334562zm4.9268844-4.683245-1.5971776 1.191115 5.928497 7.958808 1.597177-1.191115zm-8.906285 18.245703h9.9079039v-1.976167h-9.9079039z" fill="#f48024" stroke-width=".270708"/></g><text x="78.449097" y="1.459181"><tspan x="78.449097" y="37.952393"/><tspan x="78.449097" y="87.952393"/></text></svg>